<svg xmlns="http://www.w3.org/2000/svg" viewBox="0 0 64 64" width="100%" height="100%">
  <defs>
    <linearGradient id="gp-glass" x1="0" y1="0" x2="1" y2="1">
      <stop offset="0" stop-color="#81C784" stop-opacity="0.9"/>
      <stop offset="0.5" stop-color="#4CAF50" stop-opacity="0.75"/>
      <stop offset="1" stop-color="#2E7D32" stop-opacity="0.9"/>
    </linearGradient>
  </defs>
  <g id="base-shape">
    <rect x="4" y="4" width="56" height="56" rx="4" fill="url(#gp-glass)" stroke="#1E293B" stroke-width="2" stroke-linejoin="round"/>
  </g>
  <g id="surface-details">
    <path d="M9 9 L17 9 M9 9 L9 17" stroke="#1B5E20" stroke-width="2.5" fill="none" stroke-linecap="round"/>
    <path d="M55 9 L47 9 M55 9 L55 17" stroke="#1B5E20" stroke-width="2.5" fill="none" stroke-linecap="round"/>
    <path d="M9 55 L9 47 M9 55 L17 55" stroke="#1B5E20" stroke-width="2.5" fill="none" stroke-linecap="round"/>
    <path d="M55 55 L55 47 M55 55 L47 55" stroke="#1B5E20" stroke-width="2.5" fill="none" stroke-linecap="round"/>
    <rect x="12" y="28" width="40" height="8" rx="2" fill="#1B5E20" opacity="0.35"/>
    <circle cx="32" cy="46" r="3" fill="#1B5E20" opacity="0.5"/>
  </g>
  <g id="highlights">
    <path d="M8 8 L56 8 L40 20 L20 20 Z" fill="#81C784" opacity="0.35"/>
    <path d="M10 6 L50 6" stroke="#81C784" stroke-width="2" fill="none" opacity="0.8" stroke-linecap="round"/>
  </g>
</svg>
