<svg xmlns="http://www.w3.org/2000/svg" viewBox="0 0 64 64" width="100%" height="100%">
  <defs>
    <linearGradient id="topG" x1="0" y1="0" x2="0" y2="1">
      <stop offset="0" stop-color="#81C784"/>
      <stop offset="1" stop-color="#4CAF50"/>
    </linearGradient>
    <clipPath id="leftClip"><polygon points="6,18 32,32 32,58 6,44"/></clipPath>
    <clipPath id="rightClip"><polygon points="32,32 58,18 58,44 32,58"/></clipPath>
  </defs>
  <g id="cube-left-face">
    <polygon points="6,18 32,32 32,58 6,44" fill="#2E7D32" stroke="#1E293B" stroke-width="2" stroke-linejoin="round"/>
    <!-- striped awning bands on the left face -->
    <g clip-path="url(#leftClip)" stroke="#1B5E20" stroke-width="0.8">
      <line x1="0" y1="30" x2="40" y2="30"/>
      <line x1="0" y1="38" x2="40" y2="38"/>
      <line x1="0" y1="46" x2="40" y2="46"/>
      <line x1="0" y1="54" x2="40" y2="54"/>
    </g>
  </g>
  <g id="cube-right-face">
    <polygon points="32,32 58,18 58,44 32,58" fill="#1B5E20" stroke="#1E293B" stroke-width="2" stroke-linejoin="round"/>
    <g clip-path="url(#rightClip)" stroke="#0d3b14" stroke-width="0.8">
      <line x1="28" y1="30" x2="64" y2="30"/>
      <line x1="28" y1="38" x2="64" y2="38"/>
      <line x1="28" y1="46" x2="64" y2="46"/>
      <line x1="28" y1="54" x2="64" y2="54"/>
    </g>
  </g>
  <g id="cube-top-face">
    <polygon points="32,4 58,18 32,32 6,18" fill="url(#topG)" stroke="#1E293B" stroke-width="2" stroke-linejoin="round"/>
    <!-- awning valance fringe along the top front edge -->
    <g fill="#1B5E20" opacity="0.8">
      <polygon points="6,18 10,20 14,18 18,20 22,18 26,20 30,18 32,19 32,21 6,20"/>
    </g>
    <polygon points="32,9 53,18.5 32,28 11,18.5" fill="none" stroke="#81C784" stroke-width="0.8" opacity="0.5"/>
  </g>
  <g id="face-highlights">
    <line x1="32" y1="4" x2="58" y2="18" stroke="#81C784" stroke-width="1.4" stroke-linecap="round" opacity="0.9"/>
    <line x1="32" y1="4" x2="6" y2="18" stroke="#81C784" stroke-width="1.4" stroke-linecap="round" opacity="0.55"/>
  </g>
</svg>
