<svg xmlns="http://www.w3.org/2000/svg" viewBox="0 0 64 64" width="100%" height="100%">
  <g id="cube-right-face">
    <polygon points="32,32 58,18 58,44 32,58" fill="#1B5E20" stroke="#1E293B" stroke-width="1.5" stroke-linejoin="round"/>
    <polygon points="34,26 56,14 56,20 34,32" fill="#2E7D32" stroke="#1E293B" stroke-width="1"/>
    <path d="M38,24 L38,30 M44,20 L44,27 M50,17 L50,23" stroke="#1B5E20" stroke-width="1"/>
  </g>
  <g id="cube-left-face">
    <polygon points="6,18 32,32 32,58 6,44" fill="var(--color-asset-secondary, #2E7D32)" stroke="#1E293B" stroke-width="1.5" stroke-linejoin="round"/>
    <polygon points="8,14 30,26 30,32 8,20" fill="var(--color-asset-primary, #4CAF50)" stroke="#1E293B" stroke-width="1"/>
    <path d="M14,17 L14,23 M20,20 L20,27 M25,23 L25,30" stroke="#81C784" stroke-width="1"/>
  </g>
  <g id="cube-top-face">
    <polygon points="32,4 58,18 32,32 6,18" fill="var(--color-asset-primary, #4CAF50)" stroke="#1E293B" stroke-width="1.5" stroke-linejoin="round"/>
  </g>
  <g id="face-highlights">
    <polyline points="6,18 32,4 58,18" fill="none" stroke="#81C784" stroke-width="1" stroke-linecap="round" stroke-linejoin="round"/>
    <polyline points="6,18 32,32 58,18" fill="none" stroke="#81C784" stroke-width="0.75" stroke-linecap="round" stroke-linejoin="round" opacity="0.6"/>
  </g>
</svg>