<svg xmlns="http://www.w3.org/2000/svg" viewBox="0 0 512 716" width="100%" height="100%">
  <g id="card-background">
    <rect x="16" y="16" width="480" height="684" rx="24" ry="24" fill="#1E293B" stroke="#1E293B" stroke-width="2"/>
    <rect x="34" y="34" width="444" height="648" rx="16" ry="16" fill="#0F172A" opacity="0.55"/>
  </g>
  <g id="card-inner-frame">
    <rect x="46" y="46" width="420" height="624" rx="12" ry="12" fill="none" stroke="#81C784" stroke-width="1.5" stroke-dasharray="7 6" opacity="0.7"/>
  </g>
  <g id="card-corner-ranks">
    <text x="74" y="104" font-family="Arial,Helvetica,sans-serif" font-size="42" font-weight="800" fill="#81C784" text-anchor="middle" letter-spacing="1">SPR</text>
    <circle cx="74" cy="128" r="10" fill="#81C784"/><circle cx="74" cy="128" r="4.5" fill="#1B5E20"/>
    <g transform="rotate(180 256 358)">
      <text x="74" y="104" font-family="Arial,Helvetica,sans-serif" font-size="42" font-weight="800" fill="#81C784" text-anchor="middle" letter-spacing="1">SPR</text>
      <circle cx="74" cy="128" r="10" fill="#81C784"/><circle cx="74" cy="128" r="4.5" fill="#1B5E20"/>
    </g>
  </g>
  <g id="card-center-emblem">
    <rect x="168" y="270" width="44" height="44" rx="8" fill="#81C784"/>
    <rect x="178" y="270" width="24" height="44" fill="#0F172A"/>
    <rect x="168" y="280" width="44" height="24" fill="#0F172A"/>
    <circle cx="190" cy="292" r="10" fill="#81C784"/>
    <rect x="234" y="270" width="44" height="44" rx="8" fill="#81C784"/>
    <rect x="244" y="270" width="24" height="44" fill="#0F172A"/>
    <rect x="234" y="280" width="44" height="24" fill="#0F172A"/>
    <circle cx="256" cy="292" r="10" fill="#81C784"/>
    <rect x="300" y="270" width="44" height="44" rx="8" fill="#81C784"/>
    <rect x="310" y="270" width="24" height="44" fill="#0F172A"/>
    <rect x="300" y="280" width="44" height="24" fill="#0F172A"/>
    <circle cx="322" cy="292" r="10" fill="#81C784"/>
    <rect x="168" y="336" width="44" height="44" rx="8" fill="#81C784"/>
    <rect x="178" y="336" width="24" height="44" fill="#0F172A"/>
    <rect x="168" y="346" width="44" height="24" fill="#0F172A"/>
    <circle cx="190" cy="358" r="10" fill="#81C784"/>
    <rect x="234" y="336" width="44" height="44" rx="8" fill="#81C784"/>
    <rect x="244" y="336" width="24" height="44" fill="#0F172A"/>
    <rect x="234" y="346" width="44" height="24" fill="#0F172A"/>
    <circle cx="256" cy="358" r="10" fill="#81C784"/>
    <rect x="300" y="336" width="44" height="44" rx="8" fill="#81C784"/>
    <rect x="310" y="336" width="24" height="44" fill="#0F172A"/>
    <rect x="300" y="346" width="44" height="24" fill="#0F172A"/>
    <circle cx="322" cy="358" r="10" fill="#81C784"/>
    <rect x="168" y="402" width="44" height="44" rx="8" fill="#81C784"/>
    <rect x="178" y="402" width="24" height="44" fill="#0F172A"/>
    <rect x="168" y="412" width="44" height="24" fill="#0F172A"/>
    <circle cx="190" cy="424" r="10" fill="#81C784"/>
    <rect x="234" y="402" width="44" height="44" rx="8" fill="#81C784"/>
    <rect x="244" y="402" width="24" height="44" fill="#0F172A"/>
    <rect x="234" y="412" width="44" height="24" fill="#0F172A"/>
    <circle cx="256" cy="424" r="10" fill="#81C784"/>
    <rect x="300" y="402" width="44" height="44" rx="8" fill="#81C784"/>
    <rect x="310" y="402" width="24" height="44" fill="#0F172A"/>
    <rect x="300" y="412" width="44" height="24" fill="#0F172A"/>
    <circle cx="322" cy="424" r="10" fill="#81C784"/>
  </g>
</svg>
