<svg xmlns="http://www.w3.org/2000/svg" viewBox="0 0 64 64" width="100%" height="100%">
  <defs>
    <linearGradient id="charsBg" x1="0" y1="0" x2="0" y2="1">
      <stop offset="0" stop-color="#81C784"/>
      <stop offset="1" stop-color="#4CAF50"/>
    </linearGradient>
  </defs>
  <g id="base-shape">
    <rect x="1" y="1" width="62" height="62" rx="4" fill="url(#charsBg)" stroke="#1E293B" stroke-width="2"/>
  </g>
  <g id="surface-details">
    <g stroke="#2E7D32" stroke-width="1" stroke-opacity=".5">
      <line x1="17" y1="2" x2="17" y2="62"/>
      <line x1="33" y1="2" x2="33" y2="62"/>
      <line x1="48" y1="2" x2="48" y2="62"/>
      <line x1="2" y1="17" x2="62" y2="17"/>
      <line x1="2" y1="33" x2="62" y2="33"/>
      <line x1="2" y1="48" x2="62" y2="48"/>
    </g>
    <!-- 16 character figures: head + body -->
    <g fill="#1B5E20" stroke="#1E293B" stroke-width="1">
      <g><circle cx="9" cy="6" r="3"/><rect x="5" y="9" width="8" height="6" rx="2"/></g>
      <g><circle cx="25" cy="6" r="3"/><rect x="21" y="9" width="8" height="6" rx="2"/></g>
      <g><circle cx="42" cy="6" r="3"/><rect x="38" y="9" width="8" height="6" rx="2"/></g>
      <g><circle cx="56" cy="6" r="3"/><rect x="52" y="9" width="8" height="6" rx="2"/></g>
    </g>
    <g fill="#2E7D32" stroke="#1E293B" stroke-width="1">
      <g><circle cx="9" cy="22" r="3"/><rect x="5" y="25" width="8" height="6" rx="2"/></g>
      <g><circle cx="25" cy="22" r="3"/><rect x="21" y="25" width="8" height="6" rx="2"/></g>
      <g><circle cx="42" cy="22" r="3"/><rect x="38" y="25" width="8" height="6" rx="2"/></g>
      <g><circle cx="56" cy="22" r="3"/><rect x="52" y="25" width="8" height="6" rx="2"/></g>
    </g>
    <g fill="#1B5E20" stroke="#1E293B" stroke-width="1">
      <g><circle cx="9" cy="38" r="3"/><rect x="5" y="41" width="8" height="6" rx="2"/></g>
      <g><circle cx="25" cy="38" r="3"/><rect x="21" y="41" width="8" height="6" rx="2"/></g>
      <g><circle cx="42" cy="38" r="3"/><rect x="38" y="41" width="8" height="6" rx="2"/></g>
      <g><circle cx="56" cy="38" r="3"/><rect x="52" y="41" width="8" height="6" rx="2"/></g>
    </g>
    <g fill="#2E7D32" stroke="#1E293B" stroke-width="1">
      <g><circle cx="9" cy="54" r="3"/><rect x="5" y="57" width="8" height="6" rx="2"/></g>
      <g><circle cx="25" cy="54" r="3"/><rect x="21" y="57" width="8" height="6" rx="2"/></g>
      <g><circle cx="42" cy="54" r="3"/><rect x="38" y="57" width="8" height="6" rx="2"/></g>
      <g><circle cx="56" cy="54" r="3"/><rect x="52" y="57" width="8" height="6" rx="2"/></g>
    </g>
  </g>
  <g id="highlights">
    <circle cx="7.5" cy="5" r=".9" fill="#81C784"/>
    <circle cx="7.5" cy="37" r=".9" fill="#81C784"/>
    <path d="M6 6 Q32 3 58 6" fill="none" stroke="#81C784" stroke-width="1.5" stroke-opacity=".4"/>
  </g>
</svg>
