<svg xmlns="http://www.w3.org/2000/svg" viewBox="0 0 64 64" width="64" height="64">
<g transform="translate(1.5 0) rotate(3 32 32)">
<g id="unit-marine">
  
  <rect x="25" y="47" width="6" height="11" rx="2" fill="#1E3A8A" stroke="#1E293B" stroke-width="1.5" />
  <rect x="33" y="47" width="6" height="11" rx="2" fill="#1E3A8A" stroke="#1E293B" stroke-width="1.5" />
  <rect x="21" y="27" width="22" height="21" rx="6" fill="#60A5FA" stroke="#1E293B" stroke-width="2" />
  <rect x="21" y="35" width="22" height="4" fill="#2563EB" stroke="#1E293B" stroke-width="1" />
  <circle cx="20" cy="29" r="5" fill="#2563EB" stroke="#1E293B" stroke-width="1.5" />
  <circle cx="44" cy="29" r="5" fill="#2563EB" stroke="#1E293B" stroke-width="1.5" />
  <circle cx="32" cy="16" r="9" fill="#2563EB" stroke="#1E293B" stroke-width="2" />
  <rect x="24" y="14" width="16" height="4.5" rx="2" fill="#0F172A" />
  <rect x="40" y="8" width="2" height="6" fill="#1E3A8A" stroke="#1E293B" stroke-width="0.75" />
  <g transform="rotate(18 32 38)">
    <rect x="10" y="36" width="44" height="4.5" rx="2" fill="#334155" stroke="#1E293B" stroke-width="1.5" />
    <rect x="46" y="37" width="9" height="2.5" fill="#334155" stroke="#1E293B" stroke-width="1" />
    <rect x="12" y="40" width="5" height="6" rx="1" fill="#334155" stroke="#1E293B" stroke-width="1" />
  </g>
</g>
</g>
</svg>