<svg xmlns="http://www.w3.org/2000/svg" viewBox="0 0 512 716" width="100%" height="100%">
<g id="card-background">
  <rect x="16" y="16" width="480" height="684" rx="24" fill="#FFFFFF" stroke="#1E293B" stroke-width="2"/>
</g>
<g id="card-inner-frame">
  <rect x="36" y="36" width="440" height="644" rx="16" fill="none" stroke="#81C784" stroke-width="2" stroke-dasharray="10 6"/>
  <rect x="44" y="44" width="424" height="628" rx="12" fill="none" stroke="#0F172A" stroke-width="1"/>
</g>
<g id="card-corner-ranks">
  <text x="64" y="98" font-family="Georgia, serif" font-size="34" font-weight="700" fill="#1E293B">CAR</text>
  <circle cx="74" cy="122" r="10" fill="#1E293B"/>
  <text x="448" y="652" font-family="Georgia, serif" font-size="34" font-weight="700" fill="#1E293B" text-anchor="end" transform="rotate(180 448 652)">CAR</text>
  <circle cx="438" cy="594" r="10" fill="#1E293B"/>
</g>
<g id="card-center-emblem">
  <path d="M256 270 C 173 336 217 345 226 384 C 248 397 256 375 264 397 C 286 384 295 345 339 336 Z" fill="#1E293B"/>
  <rect x="242" y="384" width="28" height="40" fill="#1E293B"/>
  <path d="M222 418 Q 256 454 290 418 Q 256 434 222 418 Z" fill="#1E293B"/>
</g>
</svg>
