<svg xmlns="http://www.w3.org/2000/svg" viewBox="0 0 64 64" width="100%" height="100%">
  <defs>
    <linearGradient id="surf" x1="0" y1="0" x2="0" y2="1">
      <stop offset="0" stop-color="#81C784"/>
      <stop offset="0.45" stop-color="#4CAF50"/>
      <stop offset="1" stop-color="#2E7D32"/>
    </linearGradient>
  </defs>
  <g id="base-shape">
    <rect x="3" y="3" width="58" height="58" rx="7" fill="url(#surf)" stroke="#1E293B" stroke-width="2" stroke-linejoin="round"/>
  </g>
  <g id="surface-details">
    <g stroke="#1E293B" stroke-width="0.6" opacity="0.5">
      <line x1="16" y1="5" x2="16" y2="59"/>
      <line x1="32" y1="5" x2="32" y2="59"/>
      <line x1="48" y1="5" x2="48" y2="59"/>
      <line x1="5" y1="16" x2="59" y2="16"/>
      <line x1="5" y1="32" x2="59" y2="32"/>
      <line x1="5" y1="48" x2="59" y2="48"/>
    </g>
    <g fill="#81C784">
      <circle cx="10" cy="10" r="1.1"/><circle cx="40" cy="10" r="1.1"/><circle cx="54" cy="10" r="0.9"/>
      <circle cx="24" cy="24" r="1.1"/><circle cx="40" cy="24" r="0.9"/>
      <circle cx="10" cy="40" r="1.1"/><circle cx="24" cy="40" r="0.9"/><circle cx="54" cy="40" r="1.1"/>
      <circle cx="10" cy="54" r="0.9"/><circle cx="40" cy="54" r="1.1"/>
    </g>
    <circle cx="32" cy="32" r="5" fill="#1B5E20" stroke="#1E293B" stroke-width="1"/>
  </g>
  <g id="highlights">
    <path d="M 10 9 H 54" stroke="#81C784" stroke-width="2" stroke-linecap="round" opacity="0.85"/>
  </g>
</svg>
