<svg xmlns="http://www.w3.org/2000/svg" viewBox="0 0 64 64" width="100%" height="100%">
  <defs>
    <linearGradient id="hullGradR" x1="0" y1="0" x2="1" y2="1">
      <stop offset="0" stop-color="#4CAF50"/>
      <stop offset="1" stop-color="#1B5E20"/>
    </linearGradient>
    <radialGradient id="turretGradR" cx="0.5" cy="0.4" r="0.7">
      <stop offset="0" stop-color="#81C784"/>
      <stop offset="1" stop-color="#2E7D32"/>
    </radialGradient>
  </defs>
  <g id="base-shape">
    <rect x="4" y="14" width="56" height="36" rx="7" fill="url(#hullGradR)" stroke="#1E293B" stroke-width="2"/>
    <circle cx="32" cy="32" r="12" fill="url(#turretGradR)" stroke="#1E293B" stroke-width="2"/>
    <rect x="29" y="2" width="6" height="24" fill="#2E7D32" stroke="#1E293B" stroke-width="1.5"/>
  </g>
  <g id="surface-details">
    <rect x="8" y="18" width="6" height="4" rx="1" fill="#1B5E20"/>
    <rect x="8" y="42" width="6" height="4" rx="1" fill="#1B5E20"/>
    <rect x="50" y="18" width="6" height="4" rx="1" fill="#1B5E20"/>
    <rect x="50" y="42" width="6" height="4" rx="1" fill="#1B5E20"/>
    <circle cx="32" cy="32" r="4" fill="#1B5E20"/>
    <line x1="8" y1="47" x2="56" y2="47" stroke="#1B5E20" stroke-width="1.6"/>
    <line x1="10" y1="51" x2="54" y2="51" stroke="#1B5E20" stroke-width="1.6"/>
    <line x1="12" y1="55" x2="52" y2="55" stroke="#1B5E20" stroke-width="1.6"/>
  </g>
  <g id="highlights">
    <path d="M7 16 Q7 15 9 15 L55 15" fill="none" stroke="#81C784" stroke-width="1.7" stroke-linecap="round"/>
    <circle cx="29" cy="29" r="1.6" fill="#81C784"/>
    <rect x="30" y="3" width="2" height="22" fill="#81C784" opacity="0.5"/>
  </g>
</svg>
